<svg width="24" height="24" viewBox="0 0 24 24" fill="none" xmlns="http://www.w3.org/2000/svg">
<path d="M12.89 5.879H5.11C4.28599 5.88163 3.49648 6.21014 2.91381 6.79281C2.33114 7.37548 2.00264 8.16499 2 8.989V20.349C2 21.799 3.04 22.419 4.31 21.709L8.24 19.519C8.66 19.289 9.34 19.289 9.75 19.519L13.68 21.709C14.96 22.409 16 21.799 16 20.349V8.989C16 7.279 14.6 5.879 12.89 5.879Z" fill="#159F91"/>
<path d="M22 5.11V16.47C22 17.92 20.96 18.53 19.69 17.83L17.76 16.75C17.6817 16.7061 17.6164 16.6423 17.5708 16.565C17.5251 16.4877 17.5007 16.3998 17.5 16.31V8.99C17.5 6.45 15.43 4.38 12.89 4.38H8.81999C8.44999 4.38 8.18999 3.99 8.35999 3.67C8.87999 2.68 9.91999 2 11.11 2H18.89C20.6 2 22 3.4 22 5.11Z" fill="#159F91"/>
</svg>
