<svg width="91" height="22" viewBox="0 0 91 22" fill="none" xmlns="http://www.w3.org/2000/svg">
<path d="M1.00344 8.46L1.70344 5.3L7.10344 6.72C7.94344 6.94667 8.62344 7.35333 9.14344 7.94C9.67677 8.52667 10.0101 9.25333 10.1434 10.12L10.4034 11.78C10.4434 11.9933 10.4634 12.2067 10.4634 12.42C10.4634 13.18 10.2568 13.9133 9.84344 14.62C9.44344 15.3267 8.88344 15.9 8.16344 16.34C7.44344 16.78 6.63677 17 5.74344 17H4.48344C3.40344 17 2.54344 16.6667 1.90344 16C1.26344 15.32 0.943438 14.4533 0.943438 13.4C0.943438 13.0933 0.990104 12.7067 1.08344 12.24L1.88344 8.7L1.00344 8.46ZM3.84344 12.56C3.92344 12.6933 4.0501 12.8 4.22344 12.88C4.39677 12.96 4.59677 13 4.82344 13H6.20344C6.68344 13 7.08344 12.92 7.40344 12.76L7.12344 11C7.0701 10.6933 6.9501 10.4333 6.76344 10.22C6.5901 10.0067 6.36344 9.86 6.08344 9.78L4.54344 9.38L3.84344 12.56ZM15.0336 13C15.4469 13 15.7869 12.96 16.0536 12.88C16.3336 12.8 16.5669 12.6667 16.7536 12.48L15.6736 6.26L18.5736 4.76L19.8336 12C19.8869 12.2933 20.0203 12.5333 20.2336 12.72C20.4603 12.9067 20.7336 13 21.0536 13H22.0536C22.3469 13 22.6003 13.2 22.8136 13.6C23.0269 13.9867 23.1336 14.4533 23.1336 15C23.1336 15.5467 23.0269 16.02 22.8136 16.42C22.6003 16.8067 22.3469 17 22.0536 17H21.0736C19.7536 17 18.7536 16.52 18.0736 15.56C17.6603 16.0667 17.1736 16.4333 16.6136 16.66C16.0536 16.8867 15.4003 17 14.6536 17H11.7336L11.3536 13H15.0336ZM32.0947 16.02C31.7747 16.38 31.3947 16.6333 30.9547 16.78C30.5147 16.9267 29.988 17 29.3747 17H22.0547C21.7614 17 21.508 16.8067 21.2947 16.42C21.0814 16.02 20.9747 15.5467 20.9747 15C20.9747 14.4533 21.0814 13.9867 21.2947 13.6C21.508 13.2 21.7614 13 22.0547 13H24.3747V8.26L27.1547 7.64V13H29.5547C29.928 13 30.228 12.88 30.4547 12.64C30.6947 12.4 30.8147 12.0933 30.8147 11.72V9.4H33.6147V11.96L33.5947 12.7L36.6147 13.58L35.2547 7.24L38.0947 5.7L39.5747 12.64C39.6414 13 39.6747 13.3067 39.6747 13.56C39.6747 14.5333 39.3547 15.4133 38.7147 16.2L37.5547 17.62L32.0947 16.02ZM33.3747 4.56H35.0547V7.26H29.0347V4.56H30.6947L30.6147 2.32H33.4547L33.3747 4.56ZM43.0347 8.46L43.7347 5.3L49.1347 6.72C49.9747 6.94667 50.6547 7.35333 51.1747 7.94C51.708 8.52667 52.0414 9.25333 52.1747 10.12L52.4347 11.78C52.4747 11.9933 52.4947 12.2067 52.4947 12.42C52.4947 13.18 52.288 13.9133 51.8747 14.62C51.4747 15.3267 50.9147 15.9 50.1947 16.34C49.4747 16.78 48.668 17 47.7747 17H46.5147C45.4347 17 44.5747 16.6667 43.9347 16C43.2947 15.32 42.9747 14.4533 42.9747 13.4C42.9747 13.0933 43.0214 12.7067 43.1147 12.24L43.9147 8.7L43.0347 8.46ZM45.8747 12.56C45.9547 12.6933 46.0814 12.8 46.2547 12.88C46.428 12.96 46.628 13 46.8547 13H48.2347C48.7147 13 49.1147 12.92 49.4347 12.76L49.1547 11C49.1014 10.6933 48.9814 10.4333 48.7947 10.22C48.6214 10.0067 48.3947 9.86 48.1147 9.78L46.5747 9.38L45.8747 12.56ZM53.8636 16.28L54.8236 15.88V7.32L57.9436 6.7V11.8C57.9436 12.16 58.0503 12.4533 58.2636 12.68C58.4903 12.8933 58.7703 13 59.1036 13H60.1036C60.3969 13 60.6503 13.2 60.8636 13.6C61.0769 13.9867 61.1836 14.4533 61.1836 15C61.1836 15.5467 61.0769 16.02 60.8636 16.42C60.6503 16.8067 60.3969 17 60.1036 17H59.3036C58.3836 17 57.7103 16.7 57.2836 16.1V16.46C57.2436 17.2867 57.0569 17.9733 56.7236 18.52C56.4036 19.0667 55.9036 19.48 55.2236 19.76L52.4436 20.9L50.8036 17.52L53.8636 16.28ZM59.0216 15C59.0216 14.4533 59.1282 13.9867 59.3416 13.6C59.5549 13.2 59.8082 13 60.1016 13H63.5016C63.4482 12.6933 63.4216 12.3533 63.4216 11.98V7.74L66.5216 7.12V11.82C66.5216 12.1533 66.6349 12.4333 66.8616 12.66C67.0882 12.8867 67.3682 13 67.7016 13H68.9816C69.2749 13 69.5282 13.2 69.7416 13.6C69.9549 13.9867 70.0616 14.4533 70.0616 15C70.0616 15.5467 69.9549 16.02 69.7416 16.42C69.5282 16.8067 69.2749 17 68.9816 17H67.4416C66.7349 17 66.0882 16.8467 65.5016 16.54C64.9282 16.2333 64.4616 15.8133 64.1016 15.28L63.5816 16.06C63.1416 16.6867 62.5216 17 61.7216 17H60.1016C59.8082 17 59.5549 16.8067 59.3416 16.42C59.1282 16.02 59.0216 15.5467 59.0216 15ZM61.3816 18.92H67.4016V21.62H61.3816V18.92ZM68.9883 17C68.6949 17 68.4416 16.8067 68.2283 16.42C68.0149 16.02 67.9083 15.5467 67.9083 15C67.9083 14.4533 68.0149 13.9867 68.2283 13.6C68.4416 13.2 68.6949 13 68.9883 13H75.9283L75.6283 10.64C75.5483 10.0533 75.3216 9.58667 74.9483 9.24C74.5749 8.89333 74.1149 8.72 73.5683 8.72C73.4616 8.72 73.3149 8.73333 73.1283 8.76L69.9883 9.28L70.3083 5.9L72.8083 5.48C73.1149 5.42667 73.4483 5.4 73.8083 5.4C75.0883 5.4 76.1616 5.79333 77.0283 6.58C77.9083 7.36667 78.4483 8.42667 78.6483 9.76L79.1083 13H80.9683L79.8683 17H68.9883ZM71.5883 1H74.6283V3.92H71.5883V1ZM85.2684 13C85.9884 13 86.6084 12.92 87.1284 12.76L86.7084 10.58C86.5484 9.86 86.1551 9.31333 85.5284 8.94L83.7284 7.86L84.9484 4.6L87.3684 6.04C88.0218 6.44 88.5551 6.94 88.9684 7.54C89.3951 8.12667 89.6618 8.79333 89.7684 9.54L90.0684 11.42C90.1084 11.7133 90.1284 12.0067 90.1284 12.3C90.1284 13.1667 89.9284 13.96 89.5284 14.68C89.1418 15.4 88.5751 15.9667 87.8284 16.38C87.0818 16.7933 86.2151 17 85.2284 17H81.9484L81.5684 13H85.2684ZM82.9884 0.0799997H86.0284V3H82.9884V0.0799997Z" fill="black"/>
</svg>
