<svg width="24" height="24" viewBox="0 0 24 24" fill="none" xmlns="http://www.w3.org/2000/svg">
<g clip-path="url(#clip0_526_1515)">
<path fill-rule="evenodd" clip-rule="evenodd" d="M21.2307 4.75C21.2307 4.05964 20.6711 3.5 19.9807 3.5H1.24998C0.559622 3.5 -2.28882e-05 4.05964 -2.28882e-05 4.75C-2.28882e-05 5.44036 0.559622 6 1.24998 6H19.9807C20.6711 6 21.2307 5.44036 21.2307 4.75ZM24 11.75C24 11.0596 23.4404 10.5 22.75 10.5H1.25C0.559645 10.5 0 11.0596 0 11.75C0 12.4404 0.559645 13 1.25 13H22.75C23.4404 13 24 12.4404 24 11.75ZM13.5192 17.5C14.2096 17.5 14.7692 18.0596 14.7692 18.75C14.7692 19.4404 14.2096 20 13.5192 20H1.25C0.559639 20 -3.8147e-06 19.4404 -3.8147e-06 18.75C-3.8147e-06 18.0596 0.559639 17.5 1.25 17.5H13.5192Z" fill="black"/>
</g>
<defs>
<clipPath id="clip0_526_1515">
<rect width="24" height="24" fill="white"/>
</clipPath>
</defs>
</svg>
