<svg width="82" height="22" viewBox="0 0 82 22" fill="none" xmlns="http://www.w3.org/2000/svg">
<path d="M5.13484 17C3.81484 17 2.77484 16.6533 2.01484 15.96C1.25484 15.2533 0.874844 14.28 0.874844 13.04C0.874844 12.64 0.914844 12.2333 0.994844 11.82L1.55484 8.76H3.47484L2.95484 11.66C2.91484 11.8733 2.89484 12.0733 2.89484 12.26C2.89484 12.8867 3.09484 13.38 3.49484 13.74C3.89484 14.1 4.42151 14.28 5.07484 14.28H10.5548C11.4615 14.28 12.0882 14.0333 12.4348 13.54L12.2148 12.2C12.1482 11.7333 11.9748 11.38 11.6948 11.14C11.4148 10.8867 11.0482 10.76 10.5948 10.76H6.31484L5.03484 7.98L9.89484 3.28L10.9348 5.4L7.69484 8.44H10.7548C11.6882 8.44 12.4615 8.69333 13.0748 9.2C13.7015 9.70667 14.0882 10.3867 14.2348 11.24L14.4148 12.28C14.4682 12.6533 14.4948 12.9333 14.4948 13.12C14.4948 13.8667 14.3148 14.5333 13.9548 15.12C13.6082 15.7067 13.1082 16.1667 12.4548 16.5C11.8015 16.8333 11.0348 17 10.1548 17H5.13484ZM4.23484 6.28L7.13484 3.5L7.81484 4.88L4.87484 7.68L4.23484 6.28ZM18.657 5.66V13.1C18.657 13.4867 18.6104 13.84 18.517 14.16L18.297 14.96L19.337 14.74C19.9237 14.62 20.4237 14.48 20.837 14.32C21.2504 14.1467 21.6037 13.92 21.897 13.64L21.817 4.86L23.957 4.26V12.62C23.957 13.1 24.1104 13.5 24.417 13.82C24.737 14.1267 25.177 14.28 25.737 14.28H26.297C26.5237 14.28 26.717 14.4133 26.877 14.68C27.037 14.9333 27.117 15.2533 27.117 15.64C27.117 16.0267 27.037 16.3533 26.877 16.62C26.717 16.8733 26.5237 17 26.297 17H25.617C24.977 17 24.4304 16.8733 23.977 16.62C23.5237 16.3533 23.1704 15.98 22.917 15.5C22.637 15.9267 22.2704 16.2733 21.817 16.54C21.377 16.8067 20.8104 17.02 20.117 17.18L18.477 17.54L17.597 16.82C17.2637 16.5667 17.0104 16.26 16.837 15.9C16.677 15.5267 16.597 15.12 16.597 14.68V6.22L18.657 5.66ZM26.2769 17C26.0502 17 25.8569 16.8733 25.6969 16.62C25.5369 16.3533 25.4569 16.0267 25.4569 15.64C25.4569 15.2533 25.5369 14.9333 25.6969 14.68C25.8569 14.4133 26.0502 14.28 26.2769 14.28H28.0369C28.9835 14.28 29.6902 14.0467 30.1569 13.58L28.9769 7.76L31.0969 6.74L32.1369 11.76C32.2302 12.2667 32.2769 12.68 32.2769 13C32.2769 14.2133 31.8902 15.1867 31.1169 15.92C30.3435 16.64 29.2969 17 27.9769 17H26.2769ZM27.1569 19.24H29.5969V21.56H27.1569V19.24ZM35.7653 16.22L36.7053 15.84V7.34L39.6653 6.76V15.52C39.6653 16.52 39.4253 17.3867 38.9453 18.12C38.4653 18.8667 37.8053 19.4133 36.9653 19.76L34.2053 20.9L32.5653 17.54L35.7653 16.22ZM36.7053 1.64H39.7453V4.56H36.7053V1.64ZM52.7738 13C53.0671 13 53.3204 13.2 53.5338 13.6C53.7471 13.9867 53.8538 14.4533 53.8538 15C53.8538 15.5467 53.7471 16.02 53.5338 16.42C53.3204 16.8067 53.0671 17 52.7738 17H51.0138C50.8538 17.7333 50.5471 18.3733 50.0938 18.92C49.6404 19.4667 49.0671 19.84 48.3738 20.04L44.8938 21.12L43.8138 18L47.2538 16.96L48.4138 16.6L48.3538 16.18L47.0538 16.52C46.7338 16.6 46.4071 16.64 46.0738 16.64H44.7738C44.0138 16.64 43.3538 16.38 42.7938 15.86C42.2471 15.34 41.9204 14.68 41.8138 13.88L41.5738 12.06C41.5338 11.7133 41.5138 11.3867 41.5138 11.08C41.5138 9.76 41.8671 8.66667 42.5738 7.8C43.2938 6.92 44.3204 6.33333 45.6538 6.04L49.0138 5.3L50.1938 6.28C50.5004 6.53333 50.7338 6.83333 50.8938 7.18C51.0538 7.52667 51.1338 7.9 51.1338 8.3V13H52.7738ZM48.0738 13.14V8.86L45.5338 9.38C44.8404 9.54 44.4938 9.94667 44.4938 10.6C44.4938 10.7333 44.5004 10.8333 44.5138 10.9L44.8138 13.14H48.0738ZM43.6338 0.879999L45.0338 0.239999L45.9938 3.26L46.9138 0.219999L48.3538 0.859999L46.9938 4.46H44.9938L43.6338 0.879999ZM60.5813 15.96C60.0613 16.6533 59.2279 17 58.0813 17H52.7812C52.4879 17 52.2346 16.8067 52.0212 16.42C51.8079 16.02 51.7012 15.5467 51.7012 15C51.7012 14.4533 51.8079 13.9867 52.0212 13.6C52.2346 13.2 52.4879 13 52.7812 13L54.4613 12.98L54.7413 9.5C54.8079 8.82 54.9946 8.2 55.3013 7.64C55.6213 7.06667 56.0479 6.61333 56.5813 6.28C57.1146 5.94667 57.7213 5.78 58.4013 5.78C58.7346 5.78 59.0679 5.82 59.4013 5.9L59.9413 6.02L60.5413 4.42L65.1413 6.82C65.8879 7.20667 66.4746 7.72667 66.9013 8.38C67.3279 9.02 67.6213 9.81333 67.7813 10.76L68.2413 13.5C68.2679 13.62 68.2813 13.8067 68.2813 14.06C68.2813 14.9133 68.0146 15.6467 67.4813 16.26L66.4613 17.48L60.5813 15.96ZM65.1413 10.86C65.0746 10.5133 64.9613 10.2133 64.8013 9.96C64.6413 9.70667 64.4413 9.52 64.2013 9.4L62.3413 8.4L62.3813 11.56C62.3813 11.9867 62.3079 12.3933 62.1613 12.78L65.6213 13.68L65.1413 10.86ZM59.7613 13.02C60.0279 12.7133 60.1613 12.2667 60.1613 11.68L60.1213 8.6L58.8213 8.56C58.4213 8.53333 58.0813 8.64 57.8013 8.88C57.5346 9.10667 57.3879 9.42667 57.3613 9.84L57.1013 13.02H59.7613ZM74.2266 17C73.4399 17 72.7399 16.8267 72.1266 16.48C71.5266 16.1333 71.0532 15.64 70.7066 15C70.3599 14.36 70.1866 13.6133 70.1866 12.76L70.1466 4.28L73.2666 3.44V11.74C73.2666 12.1267 73.3799 12.4333 73.6066 12.66C73.8332 12.8867 74.1332 13 74.5066 13H76.5066C77.0799 13 77.5666 12.92 77.9666 12.76L76.7066 6.96L79.7466 5.48L80.9066 10.7C81.0266 11.2333 81.0866 11.74 81.0866 12.22C81.0866 13.1667 80.8799 14.0067 80.4666 14.74C80.0532 15.46 79.4732 16.02 78.7266 16.42C77.9932 16.8067 77.1466 17 76.1866 17H74.2266ZM73.9466 18.96H76.9866V21.88H73.9466V18.96Z" fill="black"/>
</svg>
