<svg width="24" height="24" viewBox="0 0 24 24" fill="none" xmlns="http://www.w3.org/2000/svg">
<path d="M20.86 8.37L13.93 2.83C12.86 1.97 11.13 1.97 10.07 2.82L3.14002 8.37C2.36002 8.99 1.86002 10.3 2.03002 11.28L3.36002 19.24C3.60002 20.66 4.96002 21.81 6.40002 21.81H17.6C19.03 21.81 20.4 20.65 20.64 19.24L21.97 11.28C22.13 10.3 21.63 8.99 20.86 8.37ZM12 15.5C11.337 15.5 10.7011 15.2366 10.2323 14.7678C9.76341 14.2989 9.50002 13.663 9.50002 13C9.50002 12.337 9.76341 11.7011 10.2323 11.2322C10.7011 10.7634 11.337 10.5 12 10.5C12.6631 10.5 13.2989 10.7634 13.7678 11.2322C14.2366 11.7011 14.5 12.337 14.5 13C14.5 13.663 14.2366 14.2989 13.7678 14.7678C13.2989 15.2366 12.6631 15.5 12 15.5Z" fill="#2E8EFF"/>
</svg>
