<svg width="24" height="24" viewBox="0 0 24 24" fill="none" xmlns="http://www.w3.org/2000/svg">
<path d="M12 1.16666C9.16166 1.16666 6.85415 3.47416 6.85415 6.31249C6.85415 9.09666 9.03166 11.35 11.87 11.4475C11.9567 11.4367 12.0433 11.4367 12.1083 11.4475H12.1842C13.516 11.4031 14.7783 10.8424 15.7042 9.88414C16.6302 8.92585 17.1471 7.64503 17.1458 6.31249C17.1458 3.47416 14.8383 1.16666 12 1.16666ZM17.5033 14.3281C14.4808 12.3131 9.55165 12.3131 6.50749 14.3281C5.13165 15.2489 4.37332 16.4947 4.37332 17.8272C4.37332 19.1597 5.13165 20.3947 6.49665 21.3047C8.01332 22.3231 10.0067 22.8322 12 22.8322C13.9933 22.8322 15.9867 22.3231 17.5033 21.3047C18.8683 20.3839 19.6267 19.1489 19.6267 17.8056C19.6158 16.4731 18.8683 15.2381 17.5033 14.3281V14.3281Z" fill="#2E8EFF"/>
</svg>
