<svg width="24" height="24" viewBox="0 0 24 24" fill="none" xmlns="http://www.w3.org/2000/svg">
<path d="M12.89 5.88H5.11C4.28599 5.88264 3.49648 6.21115 2.91381 6.79382C2.33114 7.37648 2.00264 8.16599 2 8.99V20.35C2 21.8 3.04 22.42 4.31 21.71L8.24 19.52C8.66 19.29 9.34 19.29 9.75 19.52L13.68 21.71C14.95 22.42 15.99 21.8 15.99 20.35V8.99C15.9907 8.58225 15.911 8.17836 15.7556 7.80139C15.6001 7.42442 15.372 7.08176 15.0841 6.79297C14.7962 6.50418 14.4543 6.27492 14.0779 6.11827C13.7014 5.96162 13.2978 5.88066 12.89 5.88Z" stroke="#7D7D7D" stroke-width="1.5" stroke-linecap="round" stroke-linejoin="round"/>
<path d="M16 8.99V20.35C16 21.8 14.96 22.41 13.69 21.71L9.76 19.52C9.34 19.29 8.66 19.29 8.24 19.52L4.31 21.71C3.04 22.41 2 21.8 2 20.35V8.99C2 7.28 3.4 5.88 5.11 5.88H12.89C14.6 5.88 16 7.28 16 8.99Z" stroke="#7D7D7D" stroke-width="1.5" stroke-linecap="round" stroke-linejoin="round"/>
<path d="M22 5.11V16.47C22 17.92 20.96 18.53 19.69 17.83L16 15.77V8.99C16 7.28 14.6 5.88 12.89 5.88H8V5.11C8 3.4 9.4 2 11.11 2H18.89C20.6 2 22 3.4 22 5.11Z" stroke="#7D7D7D" stroke-width="1.5" stroke-linecap="round" stroke-linejoin="round"/>
</svg>
