<svg width="24" height="24" viewBox="0 0 24 24" fill="none" xmlns="http://www.w3.org/2000/svg">
<path d="M10.07 2.82L3.14002 8.37C2.36002 8.99 1.86002 10.3 2.03002 11.28L3.36002 19.24C3.60002 20.66 4.96002 21.81 6.40002 21.81H17.6C19.03 21.81 20.4 20.65 20.64 19.24L21.97 11.28C22.13 10.3 21.63 8.99 20.86 8.37L13.93 2.83C12.86 1.97 11.13 1.97 10.07 2.82V2.82Z" stroke="#8B8988" stroke-width="1.5" stroke-linecap="round" stroke-linejoin="round"/>
<path d="M12 15.5C12.663 15.5 13.2989 15.2366 13.7678 14.7678C14.2366 14.2989 14.5 13.663 14.5 13C14.5 12.337 14.2366 11.7011 13.7678 11.2322C13.2989 10.7634 12.663 10.5 12 10.5C11.337 10.5 10.7011 10.7634 10.2322 11.2322C9.76339 11.7011 9.5 12.337 9.5 13C9.5 13.663 9.76339 14.2989 10.2322 14.7678C10.7011 15.2366 11.337 15.5 12 15.5Z" stroke="#8B8988" stroke-width="1.5" stroke-linecap="round" stroke-linejoin="round"/>
</svg>
