<svg width="24" height="24" viewBox="0 0 24 24" fill="none" xmlns="http://www.w3.org/2000/svg">
<path d="M11.9929 10.8799C11.8846 10.8691 11.7546 10.8691 11.6354 10.8799C10.392 10.8377 9.21376 10.3132 8.35033 9.41739C7.4869 8.52161 7.00604 7.32493 7.00957 6.08077C7.00957 3.4266 9.15457 1.27077 11.8196 1.27077C12.4505 1.25939 13.0775 1.37239 13.6648 1.60333C14.2521 1.83427 14.7881 2.17862 15.2423 2.61672C15.6965 3.05482 16.06 3.57809 16.3119 4.15665C16.5639 4.73521 16.6994 5.35774 16.7108 5.98869C16.7222 6.61964 16.6092 7.24665 16.3783 7.83392C16.1473 8.42119 15.803 8.95723 15.3649 9.41143C14.9268 9.86562 14.4035 10.2291 13.8249 10.481C13.2464 10.733 12.6238 10.8686 11.9929 10.8799ZM6.57624 14.8774C3.95457 16.6324 3.95457 19.4924 6.57624 21.2366C9.5554 23.2299 14.4412 23.2299 17.4204 21.2366C20.0421 19.4816 20.0421 16.6216 17.4204 14.8774C14.4521 12.8949 9.56624 12.8949 6.57624 14.8774Z" stroke="#7D7D7D" stroke-width="1.5" stroke-linecap="round" stroke-linejoin="round"/>
</svg>
