<svg width="74" height="23" viewBox="0 0 74 23" fill="none" xmlns="http://www.w3.org/2000/svg">
<path d="M4.07391 15.22L5.01391 14.84V6.34L7.97391 5.76V14.52C7.97391 15.52 7.73391 16.3867 7.25391 17.12C6.77391 17.8667 6.11391 18.4133 5.27391 18.76L2.51391 19.9L0.873906 16.54L4.07391 15.22ZM20.7308 12C21.0241 12 21.2774 12.2 21.4908 12.6C21.7041 12.9867 21.8108 13.4533 21.8108 14C21.8108 14.5467 21.7041 15.02 21.4908 15.42C21.2774 15.8067 21.0241 16 20.7308 16H18.9708C18.8108 16.7333 18.5041 17.3733 18.0508 17.92C17.5974 18.4667 17.0241 18.84 16.3308 19.04L12.8508 20.12L11.7708 17L15.2108 15.96L16.3708 15.6L16.3108 15.18L15.0108 15.52C14.6908 15.6 14.3641 15.64 14.0308 15.64H12.7308C11.9708 15.64 11.3108 15.38 10.7508 14.86C10.2041 14.34 9.87745 13.68 9.77078 12.88L9.53078 11.06C9.49078 10.7133 9.47078 10.3867 9.47078 10.08C9.47078 8.76 9.82411 7.66667 10.5308 6.8C11.2508 5.92 12.2774 5.33333 13.6108 5.04L16.9708 4.3L18.1508 5.28C18.4574 5.53333 18.6908 5.83333 18.8508 6.18C19.0108 6.52667 19.0908 6.9 19.0908 7.3V12H20.7308ZM16.0308 12.14V7.86L13.4908 8.38C12.7974 8.54 12.4508 8.94667 12.4508 9.6C12.4508 9.73333 12.4574 9.83333 12.4708 9.9L12.7708 12.14H16.0308ZM19.6583 14C19.6583 13.4533 19.7649 12.9867 19.9783 12.6C20.1916 12.2 20.4449 12 20.7383 12H22.3983C22.9449 12 23.3983 11.92 23.7583 11.76L23.6583 3.12L26.7783 2.28V10.76C26.7783 11.12 26.8916 11.42 27.1183 11.66C27.3583 11.8867 27.6716 12 28.0583 12H28.8183C29.1116 12 29.3583 12.2 29.5583 12.6C29.7716 12.9867 29.8783 13.4533 29.8783 14C29.8783 14.5467 29.7716 15.02 29.5583 15.42C29.3583 15.8067 29.1116 16 28.8183 16H27.8983C26.8049 16 26.0449 15.5733 25.6183 14.72C25.2449 15.1333 24.7849 15.4533 24.2383 15.68C23.7049 15.8933 23.1116 16 22.4583 16H20.7383C20.4449 16 20.1916 15.8067 19.9783 15.42C19.7649 15.02 19.6583 14.5467 19.6583 14ZM28.8047 16C28.5114 16 28.258 15.8067 28.0447 15.42C27.8314 15.02 27.7247 14.5467 27.7247 14C27.7247 13.4533 27.8314 12.9867 28.0447 12.6C28.258 12.2 28.5114 12 28.8047 12H30.6047C31.1114 12 31.5247 11.92 31.8447 11.76V11.14V6.74L34.9647 6.12V11.64C35.1514 11.88 35.4314 12 35.8047 12H37.6247C37.918 12 38.1714 12.2 38.3847 12.6C38.598 12.9867 38.7047 13.4533 38.7047 14C38.7047 14.5467 38.598 15.02 38.3847 15.42C38.1714 15.8067 37.918 16 37.6247 16H35.9447C35.4247 16 34.9647 15.8933 34.5647 15.68C34.1647 15.4667 33.8114 15.0933 33.5047 14.56C33.1847 15.0933 32.8047 15.4667 32.3647 15.68C31.9247 15.8933 31.4114 16 30.8247 16H28.8047ZM35.4047 17.92V20.62H33.7247L33.8047 22.86H30.9647L31.0447 20.62H29.3847V17.92H35.4047ZM47.6728 15.02C47.3528 15.38 46.9728 15.6333 46.5328 15.78C46.0928 15.9267 45.5661 16 44.9528 16H37.6328C37.3395 16 37.0861 15.8067 36.8728 15.42C36.6595 15.02 36.5528 14.5467 36.5528 14C36.5528 13.4533 36.6595 12.9867 36.8728 12.6C37.0861 12.2 37.3395 12 37.6328 12H39.9528V7.26L42.7328 6.64V12H45.1328C45.5061 12 45.8061 11.88 46.0328 11.64C46.2728 11.4 46.3928 11.0933 46.3928 10.72V8.4H49.1928V10.98C49.1928 11.3133 49.1861 11.5533 49.1728 11.7L52.1928 12.58L50.8528 6.34L53.6928 4.78L55.1728 11.7C55.4261 11.9 55.7261 12 56.0728 12H57.7528C58.0461 12 58.2995 12.2 58.5128 12.6C58.7261 12.9867 58.8328 13.4533 58.8328 14C58.8328 14.5467 58.7261 15.02 58.5128 15.42C58.2995 15.8067 58.0461 16 57.7528 16H56.4928C55.6928 16 55.0128 15.6667 54.4528 15L54.4128 15.04L54.3328 15.14L53.1328 16.64L47.6728 15.02ZM57.75 16C57.4567 16 57.2033 15.8067 56.99 15.42C56.7767 15.02 56.67 14.5467 56.67 14C56.67 13.4533 56.7767 12.9867 56.99 12.6C57.2033 12.2 57.4567 12 57.75 12H64.35C64.7367 12 65.0433 11.92 65.27 11.76L65.11 10.78C65.0567 10.5133 64.9433 10.3067 64.77 10.16C64.5967 10 64.3833 9.92 64.13 9.92H59.33L57.69 6.32L63.17 0.979999L64.73 4.02L61.89 6.62H64.65C65.53 6.62 66.2767 6.87333 66.89 7.38C67.5033 7.88667 67.8833 8.56667 68.03 9.42L68.23 10.54C68.2833 10.82 68.31 11.1267 68.31 11.46C68.31 12.3267 68.1033 13.1067 67.69 13.8C67.2767 14.4933 66.69 15.0333 65.93 15.42C65.1833 15.8067 64.3167 16 63.33 16H57.75ZM69.9591 3.12L73.0791 2.28V15.62L69.9591 16.48V3.12Z" fill="black"/>
</svg>
