<svg width="22" height="22" viewBox="0 0 22 22" fill="none" xmlns="http://www.w3.org/2000/svg">
<path d="M11.8158 5.38908H4.68415C3.9288 5.3915 3.20508 5.69263 2.67097 6.22674C2.13686 6.76086 1.83573 7.48457 1.83331 8.23992V18.6533C1.83331 19.9824 2.78665 20.5507 3.95081 19.8999L7.55331 17.8924C7.93831 17.6816 8.56165 17.6816 8.93748 17.8924L12.54 19.8999C13.7133 20.5416 14.6666 19.9824 14.6666 18.6533V8.23992C14.6666 6.67242 13.3833 5.38908 11.8158 5.38908V5.38908Z" fill="white"/>
<path d="M20.1667 4.68416V15.0975C20.1667 16.4267 19.2133 16.9858 18.0492 16.3442L16.28 15.3542C16.2082 15.3139 16.1484 15.2554 16.1065 15.1846C16.0647 15.1137 16.0423 15.0331 16.0417 14.9508V8.24083C16.0417 5.91249 14.1442 4.01499 11.8158 4.01499H8.085C7.74583 4.01499 7.5075 3.65749 7.66333 3.36416C8.14 2.45666 9.09333 1.83333 10.1842 1.83333H17.3158C18.8833 1.83333 20.1667 3.11666 20.1667 4.68416Z" fill="white"/>
</svg>
