<svg width="22" height="22" viewBox="0 0 22 22" fill="none" xmlns="http://www.w3.org/2000/svg">
<path d="M11.8158 5.39H4.68415C3.9288 5.39242 3.20508 5.69355 2.67097 6.22766C2.13686 6.76177 1.83573 7.48549 1.83331 8.24083V18.6542C1.83331 19.9833 2.78665 20.5517 3.95081 19.9008L7.55331 17.8933C7.93831 17.6825 8.56165 17.6825 8.93748 17.8933L12.54 19.9008C13.7041 20.5517 14.6575 19.9833 14.6575 18.6542V8.24083C14.6581 7.86706 14.5851 7.49682 14.4426 7.15127C14.3001 6.80572 14.0909 6.49161 13.8271 6.22689C13.5632 5.96216 13.2498 5.752 12.9047 5.60841C12.5596 5.46482 12.1896 5.3906 11.8158 5.39Z" stroke="white" stroke-width="1.5" stroke-linecap="round" stroke-linejoin="round"/>
<path d="M14.6666 8.24083V18.6542C14.6666 19.9833 13.7133 20.5425 12.5491 19.9008L8.94665 17.8933C8.56165 17.6825 7.93831 17.6825 7.55331 17.8933L3.95081 19.9008C2.78665 20.5425 1.83331 19.9833 1.83331 18.6542V8.24083C1.83331 6.67333 3.11665 5.39 4.68415 5.39H11.8158C13.3833 5.39 14.6666 6.67333 14.6666 8.24083Z" stroke="white" stroke-width="1.5" stroke-linecap="round" stroke-linejoin="round"/>
<path d="M20.1666 4.68416V15.0975C20.1666 16.4267 19.2133 16.9858 18.0491 16.3442L14.6666 14.4558V8.24083C14.6666 6.67333 13.3833 5.38999 11.8158 5.38999H7.33331V4.68416C7.33331 3.11666 8.61665 1.83333 10.1841 1.83333H17.3158C18.8833 1.83333 20.1666 3.11666 20.1666 4.68416Z" stroke="white" stroke-width="1.5" stroke-linecap="round" stroke-linejoin="round"/>
</svg>
