<svg width="24" height="24" viewBox="0 0 24 24" fill="none" xmlns="http://www.w3.org/2000/svg">
<path d="M19.0133 19L17.6183 17.6M11.6891 18.3C12.5594 18.3 13.4211 18.128 14.2251 17.7938C15.029 17.4596 15.7596 16.9698 16.3749 16.3523C16.9902 15.7348 17.4784 15.0017 17.8114 14.1948C18.1444 13.388 18.3158 12.5233 18.3158 11.65C18.3158 10.7767 18.1444 9.91197 17.8114 9.10515C17.4784 8.29834 16.9902 7.56525 16.3749 6.94774C15.7596 6.33023 15.029 5.84039 14.2251 5.5062C13.4211 5.17201 12.5594 5 11.6891 5C9.93163 5 8.24612 5.70062 7.00337 6.94774C5.76063 8.19486 5.06247 9.88631 5.06247 11.65C5.06247 13.4137 5.76063 15.1051 7.00337 16.3523C8.24612 17.5994 9.93163 18.3 11.6891 18.3V18.3Z" stroke="#7D7D7D" stroke-width="1.5" stroke-linecap="round" stroke-linejoin="round"/>
</svg>
