<svg width="63" height="26" viewBox="0 0 63 26" fill="none" xmlns="http://www.w3.org/2000/svg">
<path d="M3.63281 12.64L2.93281 15.78C2.87948 16.0067 2.85281 16.26 2.85281 16.54C2.85281 17.2333 3.07281 17.7933 3.51281 18.22C3.95281 18.6333 4.53948 18.84 5.27281 18.84H6.77281C7.11948 18.84 7.39948 18.7467 7.61281 18.56L7.53281 6.12L10.6528 5.28V13.76C10.6528 14.12 10.7661 14.42 10.9928 14.66C11.2328 14.8867 11.5395 15 11.9128 15H12.6728C12.9661 15 13.2195 15.2 13.4328 15.6C13.6461 15.9867 13.7528 16.4533 13.7528 17C13.7528 17.5467 13.6461 18.02 13.4328 18.42C13.2195 18.8067 12.9661 19 12.6728 19H12.3128C11.6728 19 11.1128 18.7933 10.6328 18.38C10.5928 18.8333 10.5461 19.22 10.4928 19.54C10.2395 20.5267 9.72615 21.32 8.95281 21.92C8.19281 22.5333 7.16615 22.84 5.87281 22.84H5.19281C4.16615 22.84 3.25948 22.6267 2.47281 22.2C1.69948 21.7733 1.09948 21.1667 0.672813 20.38C0.259479 19.6067 0.0528126 18.7 0.0528126 17.66C0.0528126 17.1 0.126146 16.4733 0.272813 15.78L0.972813 12.64H3.63281ZM12.648 19C12.3546 19 12.1013 18.8067 11.888 18.42C11.6746 18.02 11.568 17.5467 11.568 17C11.568 16.4533 11.6746 15.9867 11.888 15.6C12.1013 15.2 12.3546 15 12.648 15H14.548C15.1746 15 15.708 14.92 16.148 14.76L14.888 8.96L17.928 7.48L19.068 12.7C19.188 13.2333 19.248 13.74 19.248 14.22C19.248 15.1667 19.0413 16.0067 18.628 16.74C18.2146 17.46 17.6346 18.02 16.888 18.42C16.1546 18.8067 15.308 19 14.348 19H12.648ZM12.348 20.92H18.368V23.62H12.348V20.92ZM24.6406 19C23.854 19 23.154 18.8267 22.5406 18.48C21.9406 18.1333 21.4673 17.64 21.1206 17C20.774 16.36 20.6006 15.6133 20.6006 14.76L20.5606 6.12L23.6806 5.28V13.74C23.6806 14.1267 23.794 14.4333 24.0206 14.66C24.2473 14.8867 24.5473 15 24.9206 15H30.5206H31.9406V13.88L31.4206 14.1C30.994 14.3133 30.5273 14.42 30.0206 14.42H28.4406C27.734 14.42 27.1273 14.2 26.6206 13.76C26.1273 13.3067 25.834 12.7267 25.7406 12.02L25.4606 9.88C25.434 9.72 25.4206 9.48667 25.4206 9.18C25.4206 8.07333 25.7406 7.12667 26.3806 6.34C27.0206 5.54 27.9006 5.01333 29.0206 4.76L32.7806 3.96L33.9006 4.88C34.2073 5.13333 34.4406 5.44 34.6006 5.8C34.774 6.16 34.8606 6.54667 34.8606 6.96V14.82C34.8606 15.62 34.6873 16.34 34.3406 16.98C34.0073 17.6067 33.5273 18.1 32.9006 18.46C32.274 18.82 31.534 19 30.6806 19H24.6406ZM31.9206 7.26L29.2406 7.82C28.6006 7.95333 28.2806 8.32 28.2806 8.92C28.2806 9.06667 28.2873 9.18 28.3006 9.26L28.5406 11H31.9406L31.9206 7.26ZM28.2406 0.0399985H31.2806V2.96H28.2406V0.0399985ZM45.3734 8.28C45.6801 8.53333 45.9134 8.83333 46.0734 9.18C46.2334 9.52667 46.3134 9.9 46.3134 10.3V17.92C46.3134 18.88 46.0668 19.74 45.5734 20.5C45.0934 21.2733 44.4201 21.7867 43.5534 22.04L40.0734 23.12L38.9934 20L42.4334 18.96L43.5934 18.6L43.5334 18.18L42.2334 18.52C41.9134 18.6 41.5868 18.64 41.2534 18.64H39.9534C39.1934 18.64 38.5334 18.38 37.9734 17.86C37.4268 17.34 37.1001 16.68 36.9934 15.88L36.7534 14.06C36.7134 13.7133 36.6934 13.3867 36.6934 13.08C36.6934 11.76 37.0468 10.6667 37.7534 9.8C38.4734 8.92 39.5001 8.33333 40.8334 8.04L44.1934 7.3L45.3734 8.28ZM43.2534 15.14V10.86L40.7134 11.38C40.0201 11.54 39.6734 11.9467 39.6734 12.6C39.6734 12.7333 39.6801 12.8333 39.6934 12.9L39.9934 15.14H43.2534ZM49.262 18.28L50.222 17.88V9.32L53.342 8.7V13.8C53.342 14.16 53.4487 14.4533 53.662 14.68C53.8887 14.8933 54.1687 15 54.502 15H55.502C55.7954 15 56.0487 15.2 56.262 15.6C56.4754 15.9867 56.582 16.4533 56.582 17C56.582 17.5467 56.4754 18.02 56.262 18.42C56.0487 18.8067 55.7954 19 55.502 19H54.702C53.782 19 53.1087 18.7 52.682 18.1V18.46C52.642 19.2867 52.4554 19.9733 52.122 20.52C51.802 21.0667 51.302 21.48 50.622 21.76L47.842 22.9L46.202 19.52L49.262 18.28ZM55.48 19C55.1867 19 54.9333 18.8067 54.72 18.42C54.5067 18.02 54.4 17.5467 54.4 17C54.4 16.4533 54.5067 15.9867 54.72 15.6C54.9333 15.2 55.1867 15 55.48 15H57.38C58.0067 15 58.54 14.92 58.98 14.76L57.72 8.96L60.76 7.48L61.9 12.7C62.02 13.2333 62.08 13.74 62.08 14.22C62.08 15.1667 61.8733 16.0067 61.46 16.74C61.0467 17.46 60.4667 18.02 59.72 18.42C58.9867 18.8067 58.14 19 57.18 19H55.48ZM60.96 20.92V23.62H59.28L59.36 25.86H56.52L56.6 23.62H54.94V20.92H60.96Z" fill="black"/>
</svg>
